<svg xmlns="http://www.w3.org/2000/svg" width="636.844" height="78.047" viewBox="0 0 636.844 78.047">
  <defs>
    <style>
      .cls-1 {
        fill: none;
        stroke: #fff;
        stroke-width: 5px;
      }
    </style>
  </defs>
  <path id="Trazado_1" data-name="Trazado 1" class="cls-1" d="M-270.41-18.6H-300.2L-306.885,0h-9.668L-289.4-71.094h8.2L-254,0h-9.619Zm-26.953-7.666h24.17L-285.3-59.521ZM-189.795,0h-9.424L-235.01-54.785V0h-9.424V-71.094h9.424l35.889,55.029V-71.094h9.326Zm26.709,0h-9.375V-71.094h9.375Zm29.248-71.094L-110.6-13.086l23.242-58.008H-75.2V0H-84.57V-27.686l.879-29.883L-107.031,0h-7.178L-137.5-57.422l.928,29.736V0h-9.375V-71.094ZM-18.506-18.6H-48.291L-54.98,0h-9.668L-37.5-71.094h8.2L-2.1,0h-9.619ZM-45.459-26.27h24.17L-33.4-59.521ZM50.293-63.428H27.441V0H18.115V-63.428h-22.8v-7.666h54.98Zm50.732,30.566H70.215v25.2h35.791V0H60.84V-71.094h44.678v7.666h-35.3v22.9h30.811Zm93.7,10.3Q193.408-11.279,186.4-5.151T167.773.977q-12.6,0-20.19-9.033t-7.593-24.17v-6.836a40.507,40.507,0,0,1,3.54-17.432,26.443,26.443,0,0,1,10.034-11.548A27.939,27.939,0,0,1,168.6-72.07q11.328,0,18.164,6.323t7.959,17.5H185.3q-1.221-8.522-5.3-12.342T168.6-64.4q-8.984,0-14.087,6.646t-5.1,18.912v6.891q0,11.582,4.834,18.424a15.62,15.62,0,0,0,13.525,6.842q7.812,0,11.987-3.54T185.3-22.559Zm33.74-9.131q-12.061-3.467-17.554-8.521a16.28,16.28,0,0,1-5.493-12.476,17.2,17.2,0,0,1,6.714-13.892q6.714-5.493,17.456-5.493a29.126,29.126,0,0,1,13.062,2.832,21.477,21.477,0,0,1,8.887,7.813,19.977,19.977,0,0,1,3.149,10.889h-9.424q0-6.468-4.1-10.168T229.59-64.4q-6.934,0-10.815,3.057a10.2,10.2,0,0,0-3.882,8.487,9.176,9.176,0,0,0,3.687,7.362q3.687,3.008,12.549,5.5A58.225,58.225,0,0,1,245-34.5a21.043,21.043,0,0,1,7.422,7.007,17.883,17.883,0,0,1,2.417,9.424A16.611,16.611,0,0,1,248.1-4.224q-6.738,5.2-18.018,5.2a33.417,33.417,0,0,1-13.672-2.808,23.008,23.008,0,0,1-9.79-7.69,18.768,18.768,0,0,1-3.442-11.084H212.6a12.245,12.245,0,0,0,4.761,10.181q4.761,3.735,12.72,3.735,7.422,0,11.377-3.027a9.833,9.833,0,0,0,3.955-8.252,9.653,9.653,0,0,0-3.662-8.081Q238.086-28.906,228.467-31.689Zm59.326,0q-12.061-3.467-17.554-8.521a16.28,16.28,0,0,1-5.493-12.476,17.2,17.2,0,0,1,6.714-13.892q6.714-5.493,17.456-5.493a29.126,29.126,0,0,1,13.062,2.832,21.477,21.477,0,0,1,8.887,7.813,19.977,19.977,0,0,1,3.149,10.889H304.59q0-6.468-4.1-10.168t-11.572-3.7q-6.934,0-10.815,3.057a10.2,10.2,0,0,0-3.882,8.487,9.176,9.176,0,0,0,3.687,7.362q3.687,3.008,12.549,5.5a58.225,58.225,0,0,1,13.867,5.5,21.043,21.043,0,0,1,7.422,7.007,17.883,17.883,0,0,1,2.417,9.424,16.611,16.611,0,0,1-6.738,13.843Q300.684.977,289.4.977a33.417,33.417,0,0,1-13.672-2.808,23.008,23.008,0,0,1-9.79-7.69A18.768,18.768,0,0,1,262.5-20.605h9.424a12.245,12.245,0,0,0,4.761,10.181q4.761,3.735,12.72,3.735,7.422,0,11.377-3.027a9.833,9.833,0,0,0,3.955-8.252,9.653,9.653,0,0,0-3.662-8.081Q297.412-28.906,287.793-31.689Z" transform="translate(320.183 74.57)"/>
</svg>
